# xmcd
#
# Track frame offsets: 
#        182
#        14045
#        27827
#        41432
#        55465
#        64475
#        75845
#        87912
#        98970
#        112390
#        128782
#        139822
#        155727
#        170890
#        187287
#        209675
#        226762
#        252897
#        270225
#        286537
#
# Disc length: 4089 seconds
#
# Revision: 5
# Processed by: cddbd v1.5.2PL0 Copyright (c) Steve Scherf et al.
# Submitted via: ExactAudioCopy v1.3
#
DISCID=260ff714
DTITLE=Ella Fitzgerald - Basin Street Blues
DYEAR=1900
DGENRE=Blues
TTITLE0=Basin Street blues
TTITLE1=Starlit hour
TTITLE2=We can't go on this way
TTITLE3=Stairway to the stars
TTITLE4=Lover come back to me
TTITLE5=A tisket, a tasket
TTITLE6=Sing song swing
TTITLE7=That old black magic
TTITLE8=Sugar blues
TTITLE9=It's a blue world
TTITLE10=Flying home
TTITLE11=Who ya hunchin'
TTITLE12=Chewin' gum
TTITLE13=Goin' and gettin' it
TTITLE14=Ella Fitzgerald with Louis Armstrong - Don't be that way
TTITLE15=Ella Fitzgerald with Louis Armstrong - Can't we be friends
TTITLE16=Ella Fitzgerald with Louis Armstrong - Cheek to cheek
TTITLE17=Ella Fitzgerald with Louis Armstrong - A fine romance
TTITLE18=Ella Fitzgerald with Louis Armstrong - Moonlight in Vermont
TTITLE19=Ella Fitzgerald with Louis Armstrong - A foggy day in London 
TTITLE19=town
EXTD=
EXTT0=
EXTT1=
EXTT2=
EXTT3=
EXTT4=
EXTT5=
EXTT6=
EXTT7=
EXTT8=
EXTT9=
EXTT10=
EXTT11=
EXTT12=
EXTT13=
EXTT14=
EXTT15=
EXTT16=
EXTT17=
EXTT18=
EXTT19=
PLAYORDER=
